Coordinates
version=1
nRows=17
nColumns=24
inDegrees=yes

Units are S.I. units (second, meters, Newtons, ...)
Angles are in degrees.

endheader
time	pelvis_tilt	pelvis_list	pelvis_rotation	pelvis_tx	pelvis_ty	pelvis_tz	hip_flexion_r	hip_adduction_r	hip_rotation_r	knee_angle_r	ankle_angle_r	subtalar_angle_r	mtp_angle_r	hip_flexion_l	hip_adduction_l	hip_rotation_l	knee_angle_l	ankle_angle_l	subtalar_angle_l	mtp_angle_l	lumbar_extension	lumbar_bending	lumbar_rotation
      1.28333333	     -2.10284950	      3.35740326	     -2.38815492	      0.19292673	      1.03179352	      0.29836560	     20.70801549	     -5.00212742	     -4.50583247	    -67.13107671	     -3.89945686	     -0.74574284	     10.07242810	      8.94165426	      6.99582402	      1.79757713	     -6.26778027	      1.12831795	     -8.87262627	     -0.18493006	     -4.18986531	     -5.05948391	      2.87293496
      1.28750000	     -2.11382675	      3.18803156	     -2.42771784	      0.19796988	      1.03254565	      0.29814459	     21.18890356	     -4.81997434	     -4.47556430	    -66.65601655	     -3.42697347	     -1.41014456	      9.89510949	      8.49299303	      6.84677372	      1.91869545	     -5.99032978	      1.20295756	     -8.98294993	     -0.22474003	     -4.17831844	     -4.84080400	      2.73682423
      1.29166667	     -2.10033235	      3.00984131	     -2.46520988	      0.20299319	      1.03331698	      0.29791143	     21.62104722	     -4.63103194	     -4.45422426	    -66.10992442	     -2.92052903	     -2.04319106	      9.69889979	      8.02416123	      6.68995287	      2.02268772	     -5.72228190	      1.26885336	     -9.09293127	     -0.27166219	     -4.21138154	     -4.59226259	      2.62509701
      1.29583333	     -2.11154422	      2.85201339	     -2.50446228	      0.20799251	      1.03400279	      0.29768048	     22.07312804	     -4.46128429	     -4.42613820	    -65.52691478	     -2.31941499	     -2.61054934	      6.98416896	      7.57980661	      6.55773372	      2.17377198	     -5.44417097	      1.29313593	     -9.30550828	     -0.95165760	     -4.22206922	     -4.36643714	      2.60530513
      1.30000000	     -2.12409223	      2.65847073	     -2.53562640	      0.21299738	      1.03468126	      0.29745036	     22.48977633	     -4.24790499	     -4.40831231	    -64.84010652	     -1.85725690	     -3.22597981	      6.96363202	      7.15774554	      6.38027027	      2.23251536	     -5.21486557	      1.40782783	     -9.31426118	     -0.95622050	     -4.23582114	     -4.09179634	      2.45901001
      1.30416667	     -2.12486477	      2.46407052	     -2.56488801	      0.21798797	      1.03535383	      0.29723349	     22.87133502	     -4.03115995	     -4.39149962	    -64.08531361	     -1.40181120	     -3.82552053	      6.92984244	      6.72231371	      6.20262093	      2.30963107	     -4.98141017	      1.49770703	     -9.37044570	     -0.96480351	     -4.26025270	     -3.83178162	      2.35684558
      1.30833333	     -2.14098226	      2.27715007	     -2.58933025	      0.22296135	      1.03594558	      0.29700603	     23.25391175	     -3.82469034	     -4.37896862	    -63.28110469	     -0.92358470	     -4.39058955	      6.89343442	      6.31660356	      6.03381234	      2.37104380	     -4.77122467	      1.58282010	     -9.44348494	     -0.97438468	     -4.27094520	     -3.55557271	      2.27840066
      1.31250000	     -2.12280463	      2.09435216	     -2.62880817	      0.22793142	      1.03656860	      0.29682473	     23.57813899	     -3.60851590	     -4.34056705	    -62.40172667	     -0.55930456	     -5.01163456	      6.76978649	      5.84568601	      5.87131857	      2.50386158	     -4.49825517	      1.62656844	     -9.61714691	     -1.00694024	     -4.31927325	     -3.31637245	      2.13258892
      1.31666667	     -2.11708316	      1.88713892	     -2.64641651	      0.23289604	      1.03715832	      0.29661009	     23.88379759	     -3.37508802	     -4.32699985	    -61.45131992	     -0.17129064	     -5.51031372	      6.67651809	      5.40575747	      5.68151019	      2.61396755	     -4.26427904	      1.72223929	     -9.69576121	     -1.03003887	     -4.34747972	     -3.02535997	      2.06004131
      1.32083333	     -2.13238752	      1.69147657	     -2.66435573	      0.23783945	      1.03766789	      0.29641911	     24.19646558	     -3.14593857	     -4.30258075	    -60.44730159	      0.18652668	     -6.01890332	      6.56215306	      4.99911779	      5.50212488	      2.71566513	     -4.04743449	      1.80113002	     -9.80557673	     -1.05797471	     -4.35767101	     -2.75783114	      1.97150167
      1.32500000	     -2.14439889	      1.51316050	     -2.67595689	      0.24275796	      1.03812689	      0.29621865	     24.49063986	     -2.93796925	     -4.27393142	    -59.40142186	      0.57050168	     -6.45592146	      5.99547063	      4.57492828	      5.34755637	      2.91909461	     -3.79108283	      1.75739321	    -10.13989036	     -1.20256490	     -4.38615752	     -2.51213564	      1.81227077
      1.32916667	     -2.15321455	      1.32011723	     -2.68459477	      0.24767397	      1.03856533	      0.29603581	     24.75323211	     -2.71156816	     -4.25044039	    -58.28052739	      0.85959865	     -6.90889845	      5.88997399	      4.18143477	      5.16771215	      2.97102954	     -3.61167446	      1.92342658	    -10.12706888	     -1.22454368	     -4.39681087	     -2.24947804	      1.78623706
      1.33333333	     -2.15077333	      1.14776221	     -2.69076760	      0.25256739	      1.03897396	      0.29586155	     24.98918724	     -2.50536624	     -4.21605926	    -57.11780059	      1.15801933	     -7.32011291	      5.13560617	      3.75406732	      5.01622495	      3.13932481	     -3.37466610	      1.90180631	    -10.40068773	     -1.40603611	     -4.44513772	     -2.01422243	      1.60772159
      1.33750000	     -2.15250780	      0.96807500	     -2.69042082	      0.25745095	      1.03933523	      0.29569770	     25.20432439	     -2.29137686	     -4.18875375	    -55.88999097	      1.37779718	     -7.73383601	      5.02164260	      3.36474885	      4.84958980	      3.18972891	     -3.21316612	      2.08707620	    -10.37812795	     -1.42740257	     -4.47527195	     -1.77451522	      1.60461624
      1.34166667	     -2.16222422	      0.79568036	     -2.67868174	      0.26231153	      1.03964672	      0.29551767	     25.40839595	     -2.09143340	     -4.17132373	    -54.61378039	      1.60606296	     -8.07707247	      4.93392331	      2.99264314	      4.69209195	      3.25109943	     -3.06230871	      2.20415759	    -10.42747676	     -1.44391386	     -4.50393482	     -1.53419899	      1.55011735
      1.34583333	     -2.15523296	      0.64876914	     -2.67695525	      0.26719572	      1.03992660	      0.29538740	     25.57768461	     -1.90954897	     -4.13413003	    -53.28695448	      1.70799119	     -8.50323247	      4.77942059	      2.57484358	      4.56079834	      3.36070205	     -2.85120519	      2.30642353	    -10.53002934	     -1.47356957	     -4.53987796	     -1.34124061	      1.44571237
      1.35000000	     -2.17447772	      0.49682468	     -2.65882791	      0.27206401	      1.04013341	      0.29523715	     25.75048522	     -1.72671030	     -4.11224143	    -51.90587918	      1.80399809	     -8.88659583	      4.60012541	      2.20037124	      4.42379463	      3.47336000	     -2.66973128	      2.40076620	    -10.64941896	     -1.50813105	     -4.55447215	     -1.13778960	      1.34895738
